<?xml version="1.0" standalone="no"?>
<!DOCTYPE svg PUBLIC "-//W3C//DTD SVG 20010904//EN"
 "http://www.w3.org/TR/2001/REC-SVG-20010904/DTD/svg10.dtd">
<svg version="1.0" xmlns="http://www.w3.org/2000/svg"
 width="931.000000pt" height="931.000000pt" viewBox="0 0 931.000000 931.000000"
 preserveAspectRatio="xMidYMid meet">
<metadata>
Created by potrace 1.11, written by Peter Selinger 2001-2013
</metadata>
<g transform="translate(0.000000,931.000000) scale(0.100000,-0.100000)"
fill="#000000" stroke="none">
<path d="M5310 7819 c-137 -14 -301 -46 -518 -100 l-204 -51 -26 25 c-142 132
-337 83 -552 -140 -47 -48 -99 -104 -115 -125 -23 -28 -63 -51 -175 -103 -203
-94 -611 -301 -760 -386 -242 -138 -422 -264 -554 -389 -95 -90 -130 -171
-106 -244 13 -41 61 -85 101 -93 22 -4 29 -11 29 -30 0 -37 27 -81 60 -98 85
-44 239 3 726 221 130 58 238 104 239 102 7 -7 -344 -913 -357 -920 -7 -4 -62
-30 -123 -59 -141 -68 -309 -181 -456 -308 -120 -102 -191 -189 -223 -270 -23
-60 -22 -149 2 -203 18 -41 82 -108 102 -108 5 0 21 -21 34 -47 13 -27 32 -56
43 -65 38 -34 106 -58 171 -58 34 0 62 -3 62 -7 0 -3 -38 -112 -84 -242 -128
-361 -215 -634 -226 -711 -22 -153 33 -314 119 -350 20 -8 34 -23 41 -44 14
-45 65 -94 109 -107 79 -24 166 29 240 146 118 186 298 586 541 1202 l144 362
140 67 c448 213 853 328 1201 341 132 5 160 3 235 -16 47 -12 91 -29 98 -38
17 -24 15 -168 -4 -234 -22 -74 -102 -225 -171 -322 -71 -99 -264 -301 -398
-416 -347 -298 -792 -575 -1472 -914 -469 -234 -735 -396 -1078 -654 -168
-126 -244 -204 -317 -326 -61 -100 -81 -174 -76 -276 6 -108 28 -158 117 -257
36 -40 87 -98 114 -128 48 -55 117 -106 206 -152 108 -57 473 -96 680 -74 205
22 321 56 881 260 515 188 851 303 940 322 136 29 320 35 393 14 68 -20 70
-23 100 -181 11 -60 22 -112 24 -114 2 -3 23 5 48 17 24 12 46 18 48 14 3 -4
10 -40 17 -79 6 -40 15 -73 19 -73 4 0 127 58 273 129 710 346 1342 618 2017
867 140 52 256 96 258 98 2 2 -24 27 -59 56 -35 29 -64 56 -66 61 -2 4 15 13
38 20 22 7 39 17 37 23 -7 21 -215 181 -292 226 -265 151 -637 219 -990 180
-206 -23 -663 -127 -984 -225 -423 -129 -654 -217 -1251 -478 -732 -319 -956
-410 -1270 -512 -229 -74 -328 -97 -425 -98 -96 -1 -175 18 -175 42 0 25 54
106 103 154 24 23 97 79 163 123 247 169 501 302 1029 537 669 298 947 429
1205 567 469 250 739 438 976 681 390 401 594 795 595 1149 0 162 -23 241
-151 505 -88 184 -284 327 -522 382 -40 9 -75 18 -77 20 -2 1 79 85 181 185
202 200 279 291 399 473 96 143 133 218 159 321 37 142 23 270 -44 409 -18 39
-37 81 -41 95 -14 45 -56 124 -96 177 -72 96 -208 183 -344 218 -152 40 -465
55 -675 34z m-321 -835 c28 -6 31 -10 31 -41 0 -53 -64 -234 -121 -343 -77
-148 -172 -273 -314 -416 -122 -123 -326 -287 -425 -343 -40 -23 -42 -23 -36
-3 4 11 103 255 220 543 l213 524 81 28 c132 44 277 66 351 51z"/>
</g>
</svg>
